<svg width="24" height="24" viewBox="0 0 24 24" fill="none" xmlns="http://www.w3.org/2000/svg">
<g clip-path="url(#clip0_1_2239)">
<path d="M7.32361 23.1702C6.87605 22.8725 6.47937 22.5045 6.14884 22.0806C5.78526 21.643 5.4484 21.1839 5.14007 20.7058C4.41654 19.6458 3.84912 18.4873 3.45524 17.2659C2.98207 15.8471 2.75293 14.4871 2.75293 13.157C2.75293 11.6715 3.07429 10.3747 3.70282 9.28509C4.16874 8.43341 4.85377 7.72169 5.68702 7.22356C6.49454 6.72199 7.42239 6.44751 8.37282 6.42903C8.70553 6.42903 9.06378 6.47727 9.44402 6.56949C9.71714 6.64682 10.0499 6.76883 10.4563 6.92065C10.9735 7.11999 11.258 7.24201 11.3544 7.2718C11.6574 7.38247 11.912 7.43071 12.1121 7.43071C12.2639 7.43071 12.4781 7.38247 12.7215 7.30869C12.8584 7.26045 13.1166 7.17532 13.4862 7.01712C13.8523 6.88376 14.1403 6.76954 14.3694 6.68441C14.7206 6.58084 15.0604 6.48507 15.3633 6.43683C15.7224 6.38022 16.0868 6.36522 16.4494 6.39214C17.0776 6.4332 17.6965 6.56634 18.286 6.78728C19.2501 7.17532 20.0297 7.78115 20.61 8.64237C20.3648 8.79354 20.1346 8.96791 19.9226 9.16307C19.4612 9.5721 19.0682 10.0523 18.7585 10.5854C18.3536 11.314 18.1437 12.1348 18.1491 12.9683C18.164 13.992 18.4265 14.8936 18.9436 15.6733C19.3238 16.2511 19.818 16.7452 20.3958 17.1254C20.6916 17.3248 20.9463 17.4617 21.1903 17.5539C21.0761 17.9086 20.9541 18.2519 20.8101 18.5925C20.4835 19.3561 20.0876 20.0881 19.6275 20.7795C19.2175 21.3747 18.8961 21.8181 18.6521 22.1132C18.2718 22.5637 17.9058 22.9078 17.5362 23.1475C17.1297 23.4171 16.6494 23.5611 16.1614 23.5611C15.8308 23.5738 15.5004 23.5338 15.1824 23.4426C14.9093 23.3504 14.639 23.2504 14.373 23.1362C14.0964 23.0092 13.8112 22.9018 13.5195 22.8148C12.7986 22.6297 12.0427 22.6284 11.3211 22.8113C11.0253 22.8964 10.7408 22.9957 10.4599 23.1177C10.0647 23.2837 9.80227 23.3951 9.65046 23.4426C9.34754 23.5313 9.03328 23.5867 8.71546 23.6051C8.22385 23.6051 7.76557 23.4646 7.31155 23.1802L7.32361 23.1702ZM13.8076 5.70827C13.1648 6.02963 12.5512 6.16655 11.9418 6.12186C11.8461 5.50822 11.9418 4.8804 12.1965 4.19299C12.4133 3.61062 12.7337 3.07226 13.1421 2.60393C13.5735 2.11091 14.0969 1.7068 14.683 1.41426C15.3072 1.0929 15.9024 0.919093 16.4714 0.893555C16.5451 1.53627 16.4714 2.16835 16.2351 2.85151C16.0165 3.45541 15.6967 4.01772 15.2895 4.51435C14.8738 5.00804 14.3637 5.41372 13.7891 5.70757L13.8076 5.70827Z" fill="black"/>
</g>
<defs>
<clipPath id="clip0_1_2239">
<rect width="22.7009" height="22.7009" fill="white" transform="translate(0.62793 0.894043)"/>
</clipPath>
</defs>
</svg>
