<svg width="24" height="24" viewBox="0 0 24 24" fill="none" xmlns="http://www.w3.org/2000/svg">
<path d="M6.57266 14.3972L5.85431 17.0789L3.22875 17.1344C2.44409 15.679 1.99902 14.0139 1.99902 12.2444C1.99902 10.5334 2.41515 8.9198 3.15277 7.49902H3.15334L5.49082 7.92757L6.51478 10.251C6.30047 10.8758 6.18366 11.5465 6.18366 12.2444C6.18374 13.0019 6.32094 13.7276 6.57266 14.3972Z" fill="#FBBB00"/>
<path d="M22.4564 10.3169C22.5749 10.9411 22.6367 11.5857 22.6367 12.2445C22.6367 12.9833 22.559 13.7039 22.411 14.399C21.9087 16.7643 20.5962 18.8297 18.778 20.2913L18.7774 20.2908L15.8332 20.1406L15.4166 17.5393C16.623 16.8318 17.5659 15.7245 18.0626 14.399H12.5449V10.3169H18.143H22.4564Z" fill="#518EF8"/>
<path d="M18.7767 20.2905L18.7773 20.291C17.009 21.7124 14.7626 22.5628 12.3174 22.5628C8.38781 22.5628 4.97135 20.3664 3.22852 17.1342L6.57242 14.397C7.44382 16.7226 9.68727 18.3781 12.3174 18.3781C13.4479 18.3781 14.507 18.0725 15.4158 17.539L18.7767 20.2905Z" fill="#28B446"/>
<path d="M18.9035 4.30132L15.5607 7.038C14.6202 6.45008 13.5083 6.11045 12.3172 6.11045C9.62754 6.11045 7.34214 7.84192 6.51439 10.251L3.15291 7.49895H3.15234C4.86966 4.18793 8.32922 1.92578 12.3172 1.92578C14.8209 1.92578 17.1165 2.81761 18.9035 4.30132Z" fill="#F14336"/>
</svg>
